<svg xmlns="http://www.w3.org/2000/svg" width="40" height="16" viewBox="0 0 40 16">
  <g fill="none" fill-rule="evenodd">
    <rect width="39" height="15" x=".5" y=".5" stroke="#B3B3B3" rx="2"/>
    <path fill="#B3B3B3" d="M10.6933594,11.5976562 L9.75097656,11.5976562 L7.83203125,8.45800781 L5.87890625,11.5976562 L5,11.5976562 L7.37304688,7.8671875 L5.16113281,4.45898438 L6.07910156,4.45898438 L7.8515625,7.28613281 L9.63867188,4.45898438 L10.5224609,4.45898438 L8.31054688,7.83789062 L10.6933594,11.5976562 Z M11.1425781,9.28808594 L11.1425781,8.54589844 L13.5400391,8.54589844 L13.5400391,9.28808594 L11.1425781,9.28808594 Z M19.4580078,6.5390625 C19.4580078,7.26172236 19.2114282,7.81754363 18.7182617,8.20654297 C18.2250952,8.59554231 17.5195358,8.79003906 16.6015625,8.79003906 L15.7617188,8.79003906 L15.7617188,11.5976562 L14.9316406,11.5976562 L14.9316406,4.45898438 L16.7822266,4.45898438 C18.5660896,4.45898438 19.4580078,5.15233682 19.4580078,6.5390625 Z M15.7617188,8.07714844 L16.5087891,8.07714844 C17.2444698,8.07714844 17.7766911,7.95833452 18.1054688,7.72070312 C18.4342464,7.48307173 18.5986328,7.10221616 18.5986328,6.578125 C18.5986328,6.10611743 18.444012,5.75455845 18.1347656,5.5234375 C17.8255193,5.29231655 17.3437533,5.17675781 16.6894531,5.17675781 L15.7617188,5.17675781 L15.7617188,8.07714844 Z M24.1210938,11.5976562 L23.9599609,10.8359375 L23.9208984,10.8359375 C23.65397,11.1712256 23.3878594,11.3982741 23.1225586,11.5170898 C22.8572578,11.6359055 22.5260437,11.6953125 22.1289062,11.6953125 C21.5983046,11.6953125 21.1824559,11.5585951 20.8813477,11.2851562 C20.5802394,11.0117174 20.4296875,10.6227239 20.4296875,10.1181641 C20.4296875,9.03742949 21.2939367,8.47102891 23.0224609,8.41894531 L23.9306641,8.38964844 L23.9306641,8.05761719 C23.9306641,7.63769321 23.8403329,7.32763772 23.659668,7.12744141 C23.479003,6.92724509 23.1901062,6.82714844 22.7929688,6.82714844 C22.347003,6.82714844 21.8424507,6.96386582 21.2792969,7.23730469 L21.0302734,6.6171875 C21.2939466,6.47395762 21.5828435,6.36165405 21.8969727,6.28027344 C22.2111018,6.19889282 22.5260401,6.15820312 22.8417969,6.15820312 C23.4798209,6.15820312 23.9526352,6.29980327 24.2602539,6.58300781 C24.5678726,6.86621235 24.7216797,7.32030938 24.7216797,7.9453125 L24.7216797,11.5976562 L24.1210938,11.5976562 Z M22.2900391,11.0263672 C22.7945989,11.0263672 23.1909165,10.8880222 23.4790039,10.6113281 C23.7670913,10.334634 23.9111328,9.94726812 23.9111328,9.44921875 L23.9111328,8.96582031 L23.1005859,9 C22.4560515,9.02278657 21.9913751,9.12288323 21.706543,9.30029297 C21.4217108,9.47770271 21.2792969,9.75357886 21.2792969,10.1279297 C21.2792969,10.4208999 21.3680004,10.6438794 21.5454102,10.796875 C21.7228199,10.9498706 21.9710271,11.0263672 22.2900391,11.0263672 Z M28.5302734,11.6953125 C27.75553,11.6953125 27.1557638,11.4568709 26.730957,10.9799805 C26.3061502,10.5030901 26.09375,9.82845488 26.09375,8.95605469 C26.09375,8.06086792 26.3094054,7.36914307 26.7407227,6.88085938 C27.1720399,6.39257568 27.7864543,6.1484375 28.5839844,6.1484375 C28.8411471,6.1484375 29.098306,6.17610649 29.3554688,6.23144531 C29.6126315,6.28678413 29.8144524,6.35188765 29.9609375,6.42675781 L29.7119141,7.11523438 C29.5328767,7.04361943 29.3375662,6.98421248 29.1259766,6.93701172 C28.914387,6.88981096 28.7272144,6.86621094 28.5644531,6.86621094 C27.4772081,6.86621094 26.9335938,7.55956338 26.9335938,8.94628906 C26.9335938,9.60384443 27.0662422,10.1083967 27.331543,10.4599609 C27.5968438,10.8115252 27.9899062,10.9873047 28.5107422,10.9873047 C28.956708,10.9873047 29.4140602,10.891277 29.8828125,10.6992188 L29.8828125,11.4169922 C29.5247378,11.60254 29.0738959,11.6953125 28.5302734,11.6953125 Z M31.953125,8.85839844 C32.0930997,8.65982974 32.3063137,8.39941567 32.5927734,8.07714844 L34.3212891,6.24609375 L35.2832031,6.24609375 L33.1152344,8.52636719 L35.4345703,11.5976562 L34.453125,11.5976562 L32.5634766,9.06835938 L31.953125,9.59570312 L31.953125,11.5976562 L31.1523438,11.5976562 L31.1523438,4 L31.953125,4 L31.953125,8.02832031 C31.953125,8.20735767 31.9401043,8.48404761 31.9140625,8.85839844 L31.953125,8.85839844 Z"/>
  </g>
</svg>
